HIERARCHY
ROOT tetra_large
{
	OFFSET 0.000000 0.000000 0.000000
	CHANNELS 6 Xposition Yposition Zposition Yrotation Xrotation Zrotation
	End Site
	{
		OFFSET 0.000000 0.000000 0.000000
	}
}
MOTION
Frames: 183
Frame Time: 0.008333334
-3.680816 0.210592 3.928894 -75.096650 -0.244629 -0.859222 
-3.681122 0.210380 3.929049 -75.190670 -0.213226 -0.857330 
-3.681144 0.210500 3.929040 -75.131380 -0.276276 -0.859283 
-3.681354 0.210258 3.929026 -75.152160 -0.266144 -0.897858 
-3.681546 0.210471 3.929316 -75.189420 -0.271790 -0.851959 
-3.681337 0.210351 3.929284 -75.150390 -0.273315 -0.857086 
-3.681016 0.210470 3.929357 -75.107790 -0.216583 -0.862091 
-3.680778 0.210408 3.929253 -75.102360 -0.241303 -0.880707 
-3.680909 0.210268 3.929584 -75.141660 -0.281403 -0.885254 
-3.680515 0.210271 3.929465 -75.115260 -0.271057 -0.893494 
-3.680442 0.210580 3.929210 -75.129430 -0.218750 -0.946014 
-3.680216 0.210487 3.929393 -75.085720 -0.221741 -0.880371 
-3.680552 0.210688 3.929337 -75.152280 -0.236023 -0.946503 
-3.680804 0.210546 3.930013 -75.192080 -0.316101 -0.854004 
-3.680922 0.210606 3.930775 -75.282040 -0.321198 -0.777863 
-3.680691 0.210788 3.930973 -75.240600 -0.349701 -0.785400 
-3.680921 0.210578 3.931187 -75.287080 -0.327881 -0.770905 
-3.681038 0.210532 3.931255 -75.288360 -0.321777 -0.769165 
-3.681544 0.210680 3.931129 -75.202510 -0.303680 -0.824432 
-3.681774 0.210182 3.931416 -75.283260 -0.335754 -0.891174 
-3.682198 0.209648 3.931469 -75.254090 -0.217712 -0.972961 
-3.683037 0.209714 3.932001 -75.261660 -0.256500 -0.936951 
-3.683423 0.209009 3.932038 -75.252560 -0.174286 -1.025482 
-3.684425 0.208613 3.931815 -75.241060 -0.129730 -1.030914 
-3.685339 0.208433 3.931944 -75.201110 -0.099426 -1.030151 
-3.686189 0.208530 3.932251 -75.259250 -0.089020 -0.971985 
-3.686380 0.208416 3.931512 -75.160550 -0.058594 -1.011780 
-3.686383 0.208347 3.931520 -75.186040 -0.025421 -1.002930 
-3.686059 0.208186 3.931567 -75.172390 -0.084290 -1.014954 
-3.685912 0.208505 3.932050 -75.184510 -0.065308 -1.006073 
-3.685204 0.208262 3.932018 -75.248690 -0.118378 -1.028992 
-3.684582 0.208380 3.932580 -75.144100 -0.128571 -0.966065 
-3.684206 0.208530 3.932320 -75.247800 -0.074738 -1.067688 
-3.683829 0.208473 3.932845 -75.190220 -0.132538 -1.091278 
-3.683781 0.208556 3.933013 -75.268250 -0.110230 -1.072113 
-3.683888 0.208327 3.933201 -75.233400 -0.091431 -0.992859 
-3.684211 0.208296 3.932552 -75.237670 -0.106445 -1.054626 
-3.684612 0.208323 3.932175 -75.229550 -0.122711 -1.037750 
-3.684995 0.208054 3.932534 -75.235140 -0.143738 -0.962555 
-3.685594 0.208196 3.932134 -75.205380 -0.064514 -1.041718 
-3.685997 0.208312 3.932035 -75.215760 -0.067291 -1.014862 
-3.685998 0.208104 3.931680 -75.138920 -0.046631 -1.023254 
-3.686030 0.208057 3.932008 -75.187990 -0.063110 -1.019745 
-3.685807 0.208334 3.931933 -75.145450 -0.020355 -1.008850 
-3.685377 0.208014 3.932271 -75.219700 -0.086456 -1.032990 
-3.685048 0.208285 3.932471 -75.220610 -0.120544 -1.045959 
-3.684659 0.208286 3.932473 -75.243440 -0.113800 -1.045166 
-3.684377 0.208469 3.932798 -75.254360 -0.103180 -1.052216 
-3.684271 0.208516 3.932781 -75.283330 -0.103088 -1.044678 
-3.684317 0.208497 3.933515 -75.256350 -0.150208 -0.904511 
-3.684439 0.208583 3.932512 -75.257450 -0.069519 -1.092682 
-3.684762 0.208245 3.932622 -75.235020 -0.168610 -0.962677 
-3.685021 0.208033 3.932626 -75.207890 -0.171448 -0.972961 
-3.685212 0.208135 3.931949 -75.223970 -0.106934 -1.026947 
-3.685466 0.207947 3.932200 -75.176730 -0.081787 -1.048706 
-3.685767 0.208303 3.932127 -75.156710 0.006220 -1.000427 
-3.685954 0.208120 3.931904 -75.217650 -0.071686 -1.007629 
-3.685535 0.208417 3.932252 -75.178340 -0.046997 -1.001190 
-3.685663 0.208178 3.932425 -75.217530 -0.062805 -1.038696 
-3.685206 0.208335 3.932409 -75.245240 -0.109741 -1.022797 
-3.684841 0.208438 3.932435 -75.265380 -0.107880 -1.036743 
-3.684722 0.208358 3.932321 -75.192500 -0.108856 -1.046509 
-3.684528 0.208376 3.932518 -75.241970 -0.112946 -1.052307 
-3.684416 0.208296 3.932459 -75.259700 -0.120056 -1.057251 
-3.684515 0.208528 3.932502 -75.268460 -0.113770 -1.035370 
-3.684763 0.208369 3.932500 -75.213260 -0.146301 -1.051575 
-3.685132 0.208131 3.932429 -75.215580 -0.187683 -0.950806 
-3.685482 0.208035 3.932698 -75.176760 -0.168304 -0.960907 
-3.685558 0.207971 3.932339 -75.177550 -0.173798 -0.955750 
-3.685896 0.207829 3.932469 -75.162540 -0.122772 -0.941620 
-3.685631 0.208174 3.932008 -75.196040 -0.091339 -1.021667 
-3.685713 0.208219 3.932272 -75.207640 -0.060852 -1.028076 
-3.685535 0.208104 3.932710 -75.243130 -0.091431 -0.959381 
-3.685311 0.208277 3.932355 -75.217830 -0.081482 -1.044312 
-3.685048 0.208228 3.932396 -75.216490 -0.140991 -1.046082 
-3.684780 0.208258 3.932459 -75.238680 -0.120819 -1.038696 
-3.684663 0.208395 3.932432 -75.262080 -0.112030 -1.044891 
-3.684612 0.208418 3.932425 -75.258670 -0.115082 -1.043182 
-3.684796 0.208559 3.932545 -75.260440 -0.097046 -1.029297 
-3.684773 0.208362 3.932456 -75.250090 -0.121704 -1.042511 
-3.684986 0.208392 3.932433 -75.255490 -0.122498 -1.031708 
-3.685170 0.208267 3.932414 -75.228640 -0.114533 -1.059143 
-3.685575 0.208259 3.932312 -75.236630 -0.069855 -1.009399 
-3.685758 0.208087 3.932522 -75.151250 -0.148865 -0.950775 
-3.685671 0.208481 3.932181 -75.213870 -0.081116 -1.016876 
-3.685645 0.208314 3.932414 -75.209290 -0.065765 -1.041504 
-3.685303 0.208178 3.932291 -75.240330 -0.086121 -1.026825 
-3.685211 0.208277 3.932381 -75.211760 -0.120636 -1.051880 
-3.684813 0.208305 3.932409 -75.207060 -0.120331 -1.045197 
-3.684968 0.208009 3.932703 -75.201170 -0.172974 -0.971222 
-3.684699 0.208337 3.932458 -75.239500 -0.126465 -1.047913 
-3.684683 0.208291 3.932441 -75.238590 -0.118408 -1.054901 
-3.684791 0.208343 3.932461 -75.238460 -0.092102 -1.056580 
-3.684819 0.208297 3.932406 -75.234800 -0.117889 -1.046631 
-3.685058 0.208448 3.932462 -75.221440 -0.128876 -1.032745 
-3.685110 0.208253 3.932423 -75.246150 -0.122070 -1.040680 
-3.685137 0.208424 3.931922 -75.262080 -0.136841 -1.028351 
-3.685633 0.208102 3.932456 -75.208400 -0.171326 -0.938416 
-3.685686 0.208161 3.932298 -75.210020 -0.060150 -1.035828 
-3.685466 0.208141 3.932225 -75.219820 -0.066650 -1.032928 
-3.685261 0.208193 3.932076 -75.208800 -0.113281 -1.042938 
-3.685073 0.208174 3.932324 -75.236270 -0.117188 -1.055084 
-3.685040 0.208312 3.932425 -75.249420 -0.120361 -1.042480 
-3.684899 0.208245 3.932448 -75.240910 -0.118958 -1.048035 
-3.684763 0.208093 3.932580 -75.241300 -0.113800 -1.068695 
-3.684708 0.208573 3.932039 -75.276490 -0.140076 -1.005859 
-3.684728 0.208283 3.932677 -75.242860 -0.180939 -1.064453 
-3.684741 0.208251 3.932692 -75.281740 -0.108337 -1.075775 
-3.684706 0.208643 3.932354 -75.182800 -0.056366 -1.020142 
-3.684941 0.208257 3.932577 -75.259700 -0.141144 -1.051575 
-3.685083 0.208210 3.932403 -75.201660 -0.124725 -1.051849 
-3.685181 0.207810 3.932508 -75.184330 -0.174011 -0.968964 
-3.685143 0.207997 3.932454 -75.266170 -0.160584 -0.984009 
-3.685304 0.208156 3.931848 -75.234440 -0.114624 -1.031494 
-3.685131 0.208191 3.931754 -75.174470 -0.100311 -1.017456 
-3.685413 0.208275 3.932617 -75.233120 -0.079071 -1.043121 
-3.684958 0.207995 3.932539 -75.220670 -0.142242 -1.052979 
-3.684902 0.207640 3.933341 -75.243840 -0.162018 -0.989929 
-3.684948 0.207956 3.933305 -75.199890 -0.143768 -0.980194 
-3.684869 0.207808 3.933898 -75.231720 -0.112396 -0.981140 
-3.685022 0.207535 3.933800 -75.251770 -0.126984 -1.014648 
-3.684895 0.207570 3.933498 -75.249210 -0.110779 -1.018097 
-3.684748 0.207737 3.933288 -75.263240 -0.149780 -0.956665 
-3.684931 0.207485 3.933462 -75.227840 -0.152496 -1.000092 
-3.685063 0.207416 3.933531 -75.234860 -0.185791 -1.016205 
-3.685163 0.207141 3.933844 -75.259160 -0.185181 -1.029938 
-3.685426 0.206948 3.933891 -75.253110 -0.136047 -1.028381 
-3.685547 0.206665 3.934182 -75.260410 -0.113800 -1.035583 
-3.685815 0.206434 3.935188 -75.122590 -0.146088 -1.067535 
-3.686626 0.206641 3.936805 -75.060550 -0.133453 -1.043121 
-3.687218 0.205945 3.938223 -75.105260 -0.208984 -1.051147 
-3.686998 0.205418 3.938788 -75.132810 -0.142212 -1.155640 
-3.687021 0.205320 3.939754 -75.173680 -0.151306 -1.175842 
-3.687067 0.204667 3.940257 -75.167790 -0.086334 -1.179169 
-3.686612 0.204176 3.939902 -75.089840 -0.116974 -1.148956 
-3.686794 0.204070 3.940213 -75.156490 -0.082855 -1.217163 
-3.686610 0.204112 3.939812 -75.112850 -0.119415 -1.182617 
-3.686613 0.203608 3.939656 -75.074580 -0.108368 -1.214081 
-3.686908 0.203938 3.940206 -75.092710 -0.088867 -1.173218 
-3.686975 0.203652 3.941146 -75.145600 -0.077240 -1.173370 
-3.686455 0.203786 3.940916 -75.082920 -0.101440 -1.192963 
-3.686524 0.203264 3.941921 -75.138180 -0.072815 -1.227417 
-3.686890 0.203282 3.941741 -75.091610 -0.089294 -1.181885 
-3.686937 0.203056 3.941562 -75.099700 -0.070709 -1.202667 
-3.687336 0.203245 3.941171 -75.125670 -0.083832 -1.174042 
-3.687459 0.203032 3.941324 -75.109620 -0.073944 -1.200165 
-3.687578 0.202964 3.940775 -75.064270 -0.073853 -1.209167 
-3.688196 0.202431 3.941654 -75.066650 -0.079498 -1.213745 
-3.688154 0.202325 3.942014 -75.149410 -0.063049 -1.186981 
-3.687876 0.202200 3.942080 -75.122680 -0.072479 -1.203705 
-3.687678 0.202317 3.942184 -75.101900 -0.046387 -1.181122 
-3.687373 0.201971 3.942384 -75.106510 -0.046814 -1.211456 
-3.687128 0.201910 3.942389 -75.102420 -0.098694 -1.142059 
-3.686772 0.201760 3.942659 -75.044100 -0.090546 -1.170837 
-3.686785 0.201702 3.943393 -75.113560 -0.134125 -1.204346 
-3.686567 0.201436 3.943456 -75.158330 -0.131287 -1.220520 
-3.686626 0.201423 3.943459 -75.107120 -0.136932 -1.215088 
-3.686793 0.201199 3.943813 -75.165070 -0.079559 -1.243286 
-3.687323 0.200800 3.943818 -75.099700 -0.124939 -1.240173 
-3.687183 0.200611 3.944043 -75.141050 -0.046814 -1.278412 
-3.687497 0.200690 3.944561 -75.163210 -0.054749 -1.278198 
-3.688150 0.200263 3.944545 -75.071590 -0.129089 -1.270081 
-3.688687 0.200033 3.945215 -75.153870 -0.069183 -1.301025 
-3.688933 0.199963 3.945568 -75.114780 -0.134491 -1.288147 
-3.689186 0.199614 3.945779 -75.135860 -0.082764 -1.290588 
-3.689312 0.199423 3.945813 -75.083160 -0.077545 -1.313446 
-3.689027 0.199615 3.945977 -75.157170 -0.081451 -1.302124 
-3.688631 0.199576 3.945695 -75.121120 -0.107605 -1.321716 
-3.688633 0.199652 3.946004 -75.124790 -0.108398 -1.322357 
-3.688170 0.199389 3.945501 -75.076510 -0.110779 -1.343262 
-3.688066 0.199664 3.945761 -75.090000 -0.110046 -1.334106 
-3.687561 0.199812 3.945705 -75.161190 -0.039459 -1.333252 
-3.687660 0.199664 3.945675 -75.098940 -0.113251 -1.311920 
-3.687044 0.200065 3.945945 -75.159580 -0.078552 -1.359253 
-3.686966 0.199936 3.946176 -75.164310 -0.075775 -1.383423 
-3.686968 0.199852 3.946231 -75.157410 -0.095764 -1.380127 
-3.686630 0.199956 3.946272 -75.167660 -0.092316 -1.368561 
-3.686778 0.200002 3.946315 -75.163360 -0.111786 -1.374695 
-3.686645 0.199772 3.946329 -75.130130 -0.111298 -1.388733 
-3.686510 0.199795 3.946217 -75.120480 -0.136780 -1.375702 
-3.686465 0.199982 3.946188 -75.136840 -0.146301 -1.357910 
-3.686507 0.199859 3.946408 -75.158080 -0.130035 -1.382782 
-3.686374 0.199849 3.946297 -75.161990 -0.148407 -1.361145 
